<svg width="120" height="63" viewBox="0 0 120 63" fill="none" xmlns="http://www.w3.org/2000/svg">
<path d="M26.0586 19.3766C25.5507 19.9523 24.7217 20.0992 24.0461 19.7403C22.0576 18.6878 19.7697 18.1314 17.3427 18.2422C10.625 18.5529 5.16981 24.0588 4.8919 30.8146C4.76492 33.8903 5.68969 36.742 7.33559 39.0397C7.79079 39.6756 7.75485 40.5378 7.23976 41.1231C6.5378 41.9203 5.28002 41.8625 4.65951 41.0002C2.5656 38.0883 1.40126 34.4635 1.58813 30.5569C2.00739 21.8357 9.26658 14.9016 17.9513 14.9016C20.7136 14.9016 23.3154 15.588 25.601 16.8019C26.5473 17.3053 26.7677 18.5698 26.0586 19.3742V19.3766Z" fill="#E09E19"/>
<path d="M21.3631 31.3759C21.3631 33.2666 19.8345 34.8032 17.9539 34.8032C16.0732 34.8032 14.5447 33.2666 14.5447 31.3759C14.5447 29.4852 16.0684 27.9462 17.9539 27.9462C19.8393 27.9462 21.3631 29.4828 21.3631 31.3759Z" fill="#E09E19"/>
<path d="M27.5871 29.7114C27.0959 26.8236 25.3494 24.3621 22.9321 22.9218C21.2862 21.9416 19.3336 21.4309 17.2517 21.5779C12.4817 21.9127 8.60057 25.7711 8.21724 30.5616C8.00402 33.2254 8.84733 35.6893 10.371 37.568C11.188 38.5723 12.1942 39.4129 13.3418 40.0319L11.1041 42.5704L9.35523 44.5527C9.10368 44.8393 9.17316 45.2824 9.49898 45.4799C11.969 46.9804 14.8583 47.8427 17.9561 47.8427C21.3101 47.8427 24.4294 46.8311 27.0289 45.0873C28.1022 44.3696 29.0868 43.5266 29.9589 42.5825C32.3283 40.0247 33.8904 36.7081 34.2569 33.0327H35.9939C36.9066 33.0327 37.6469 32.2885 37.6469 31.3709C37.6469 30.4532 36.9066 29.709 35.9939 29.709H27.5871V29.7114ZM27.7524 40.0776C26.8995 41.0483 25.9076 41.8864 24.8056 42.568L22.5679 40.0319L21.0634 38.3267C20.7519 37.975 20.268 37.8136 19.8176 37.9437C19.2258 38.1123 18.5981 38.2062 17.9537 38.2062C17.0481 38.2062 16.1832 38.0256 15.395 37.7053C14.1731 37.2067 13.1262 36.3613 12.3859 35.2871C11.509 34.0347 11.0443 32.4692 11.1808 30.7952C11.4563 27.4619 14.1731 24.7788 17.4937 24.5596C20.8765 24.3356 23.773 26.5996 24.5444 29.7138C24.681 30.2461 24.7505 30.8025 24.7505 31.3781C24.7505 31.9537 24.681 32.5053 24.5444 33.0376C24.4271 33.5193 24.257 33.9817 24.0389 34.4176C23.7634 34.974 23.8329 35.6388 24.2426 36.1036C24.9469 36.9032 26.2215 36.7178 26.6959 35.764C27.1175 34.9162 27.4194 34.001 27.5823 33.0376H30.9244C30.589 35.7231 29.4462 38.1532 27.7476 40.08L27.7524 40.0776Z" fill="#2D637F"/>
<path d="M57.2505 36.6903C56.286 36.6903 55.3748 36.5003 54.5169 36.1178C53.659 35.7353 52.9102 35.2072 52.2656 34.5311C51.6234 33.8549 51.1169 33.0727 50.7486 32.1794C50.3802 31.2861 50.196 30.3286 50.196 29.3045C50.196 28.2804 50.3802 27.3279 50.7486 26.4395C51.1169 25.5536 51.6258 24.7714 52.2753 24.0977C52.9248 23.4216 53.6881 22.8984 54.5654 22.5233C55.4426 22.1482 56.3902 21.9607 57.408 21.9607C58.5203 21.9607 59.5502 22.1778 60.5026 22.6146C61.4526 23.0514 62.2499 23.6708 62.8945 24.4753L61.3266 26.0719C60.9122 25.4722 60.3548 25.0108 59.6593 24.69C58.9614 24.3692 58.2125 24.2088 57.408 24.2088C56.4435 24.2088 55.5953 24.4234 54.8659 24.8528C54.1364 25.2822 53.5694 25.8794 53.1671 26.6444C52.7648 27.4093 52.5637 28.2952 52.5637 29.3045C52.5637 30.3138 52.7672 31.2046 53.1768 31.9746C53.5863 32.7445 54.1389 33.3491 54.8344 33.7858C55.5299 34.2226 56.3223 34.4398 57.2044 34.4398C58.1423 34.4398 58.9492 34.2646 59.6254 33.9191C60.3015 33.5712 60.8201 33.0529 61.1836 32.3645C61.5447 31.676 61.7264 30.8271 61.7264 29.8178L63.1732 30.8814H57.1657V28.732H64.1183V29.0602C64.1183 30.7654 63.8202 32.1843 63.2241 33.317C62.6279 34.4497 61.8137 35.2961 60.7837 35.8538C59.7514 36.4139 58.5736 36.6928 57.248 36.6928L57.2505 36.6903Z" fill="#282828"/>
<path d="M67.2371 24.8652C66.8615 24.8652 66.5513 24.7368 66.3017 24.4753C66.0545 24.2162 65.9309 23.8954 65.9309 23.5129C65.9309 23.1304 66.0545 22.8096 66.3017 22.5505C66.5489 22.2914 66.8615 22.1606 67.2371 22.1606C67.6127 22.1606 67.9399 22.2914 68.1822 22.5505C68.4245 22.8096 68.5433 23.1304 68.5433 23.5129C68.5433 23.8954 68.4221 24.2162 68.1822 24.4753C67.9399 24.7344 67.6273 24.8652 67.2371 24.8652Z" fill="#E09E19"/>
<path d="M68.3422 26.6642H66.1321V36.4856H68.3422V26.6642Z" fill="#282828"/>
<path d="M74.7325 36.2834C73.8747 36.2834 73.1016 36.0687 72.411 35.6394C71.7203 35.21 71.1775 34.6202 70.7824 33.87C70.3874 33.1199 70.1887 32.2808 70.1887 31.353C70.1887 30.4251 70.3874 29.5935 70.7824 28.8557C71.1775 28.1179 71.7203 27.5355 72.411 27.1061C73.1016 26.6767 73.8747 26.462 74.7325 26.462C75.4959 26.462 76.1647 26.62 76.7415 26.9334C77.3183 27.2468 77.7666 27.6811 78.0865 28.2338C78.4088 28.7866 78.5687 29.4307 78.5687 30.1685V32.5819C78.5687 33.3049 78.4039 33.9465 78.0768 34.5067C77.7472 35.0669 77.2965 35.5036 76.7197 35.817C76.1429 36.1304 75.4814 36.2884 74.7301 36.2884L74.7325 36.2834ZM74.8319 40.7845C73.8141 40.7845 72.9223 40.5969 72.1589 40.2219C71.3956 39.8468 70.78 39.3187 70.3099 38.6351L71.7566 37.1619C72.1444 37.653 72.5879 38.0207 73.0822 38.2675C73.579 38.5142 74.1752 38.6351 74.8707 38.6351C75.7407 38.6351 76.4313 38.4056 76.9402 37.9491C77.4491 37.4926 77.7036 36.8683 77.7036 36.0761V33.6603L78.0841 31.4912L77.7036 29.3023V26.6619H79.9137V36.0737C79.9137 37.0139 79.698 37.8356 79.2715 38.5389C78.8426 39.2422 78.2464 39.79 77.4831 40.1873C76.7197 40.5821 75.8352 40.7796 74.8295 40.7796L74.8319 40.7845ZM75.1736 34.1538C75.7092 34.1538 76.1793 34.0378 76.5816 33.8059C76.9838 33.5739 77.294 33.2506 77.517 32.8336C77.7375 32.4166 77.849 31.9304 77.849 31.3703C77.849 30.8101 77.7399 30.324 77.517 29.9069C77.2965 29.4899 76.9838 29.1666 76.5816 28.9347C76.1793 28.7027 75.7116 28.5867 75.1736 28.5867C74.6356 28.5867 74.1655 28.7027 73.7559 28.9347C73.3464 29.1666 73.0289 29.4899 72.8011 29.9069C72.5733 30.324 72.4594 30.8101 72.4594 31.3703C72.4594 31.9304 72.5733 32.3993 72.8011 32.8237C73.0289 33.2457 73.3464 33.5739 73.7559 33.8059C74.1655 34.0378 74.6356 34.1538 75.1736 34.1538Z" fill="#282828"/>
<path d="M86.2872 36.2834C85.4294 36.2834 84.6563 36.0687 83.9656 35.6394C83.275 35.21 82.7321 34.6202 82.3371 33.87C81.9421 33.1199 81.7434 32.2808 81.7434 31.353C81.7434 30.4251 81.9421 29.5935 82.3371 28.8557C82.7321 28.1179 83.275 27.5355 83.9656 27.1061C84.6563 26.6767 85.4294 26.462 86.2872 26.462C87.0506 26.462 87.7194 26.62 88.2962 26.9334C88.873 27.2468 89.3213 27.6811 89.6412 28.2338C89.9635 28.7866 90.1234 29.4307 90.1234 30.1685V32.5819C90.1234 33.3049 89.9586 33.9465 89.6315 34.5067C89.3019 35.0669 88.8511 35.5036 88.2744 35.817C87.6976 36.1304 87.036 36.2884 86.2848 36.2884L86.2872 36.2834ZM86.3866 40.7845C85.3688 40.7845 84.477 40.5969 83.7136 40.2219C82.9502 39.8468 82.3347 39.3187 81.8646 38.6351L83.3113 37.1619C83.6991 37.653 84.1425 38.0207 84.6369 38.2675C85.1337 38.5142 85.7298 38.6351 86.4253 38.6351C87.2953 38.6351 87.986 38.4056 88.4949 37.9491C89.0038 37.4926 89.2583 36.8683 89.2583 36.0761V33.6603L89.6387 31.4912L89.2583 29.3023V26.6619H91.4684V36.0737C91.4684 37.0139 91.2527 37.8356 90.8262 38.5389C90.3973 39.2422 89.8011 39.79 89.0377 40.1873C88.2744 40.5821 87.3899 40.7796 86.3842 40.7796L86.3866 40.7845ZM86.7283 34.1538C87.2638 34.1538 87.734 34.0378 88.1362 33.8059C88.5385 33.5739 88.8487 33.2506 89.0717 32.8336C89.2922 32.4166 89.4037 31.9304 89.4037 31.3703C89.4037 30.8101 89.2946 30.324 89.0717 29.9069C88.8511 29.4899 88.5385 29.1666 88.1362 28.9347C87.734 28.7027 87.2663 28.5867 86.7283 28.5867C86.1903 28.5867 85.7202 28.7027 85.3106 28.9347C84.9011 29.1666 84.5836 29.4899 84.3558 29.9069C84.128 30.324 84.0141 30.8101 84.0141 31.3703C84.0141 31.9304 84.128 32.3993 84.3558 32.8237C84.5836 33.2457 84.9011 33.5739 85.3106 33.8059C85.7202 34.0378 86.1903 34.1538 86.7283 34.1538Z" fill="#282828"/>
<path d="M93.1987 35.2591L98.5835 27.893H101.176L95.7917 35.2591H93.1987ZM93.1987 36.488V35.2591L95.2077 34.4398H101.055V36.4855H93.1987V36.488ZM93.5598 28.7123V26.6666H101.176V27.8955L99.1675 28.7147H93.5622L93.5598 28.7123Z" fill="#282828"/>
</svg>
